<svg xmlns="http://www.w3.org/2000/svg" viewBox="0 0 64 64"><g transform="translate(16 16)"><radialGradient id="a" cx="-1610.657" cy="905.066" r="1.254" gradientTransform="matrix(-38.5056 -44.701 -44.7023 38.5044 -21514.654 -106804.36)" gradientUnits="userSpaceOnUse"><stop offset="0" stop-color="#0344ed" stop-opacity=".824"/><stop offset="1" stop-color="#8f58ff" stop-opacity=".1"/></radialGradient><path d="M24.4-13.5c5 1.4 9.5 4.1 13.1 7.7v43.5c-3.6 3.6-8 6.3-13 7.7V28.8c0-2.7-2.1-4.9-4.8-5h-7.2c-2.7 0-4.9 2.1-5 4.8v17c-5-1.4-9.5-4.1-13-7.7V-5.8c3.6-3.6 8.1-6.3 13.1-7.7 0 .2-.1.5-.1.7V3.7c0 2.7 2.1 4.9 4.8 5h7.2c2.7 0 4.9-2.1 5-4.8v-16.4c0-.3 0-.7-.1-1zm19 15.6c2.8 4.7 4.1 9.4 4.1 14.2s-1.4 9.5-4.1 14.2c-.3.5-.9.6-1.4.4s-.6-.9-.4-1.4c2.6-4.4 3.9-8.8 3.9-13.2s-1.3-8.8-3.9-13.2c-.2-.4-.1-1.1.4-1.3s1.1-.2 1.4.3zm-54.8 0c.3-.5.9-.6 1.4-.4.5.3.6 1 .4 1.4-2.6 4.4-3.9 8.8-3.9 13.2s1.3 8.8 3.9 13.2c.3.5.1 1.1-.4 1.4-.5.3-1.1.1-1.4-.4-2.8-4.7-4.1-9.4-4.1-14.2s1.4-9.5 4.1-14.2z" fill-rule="evenodd" clip-rule="evenodd" fill="url(#a)"/></g><g transform="translate(16 16)"><radialGradient id="b" cx="-1555.031" cy="926.428" r=".886" gradientTransform="matrix(39.1854 44.1069 44.1082 -39.1841 20067.082 104882.594)" gradientUnits="userSpaceOnUse"><stop offset="0" stop-color="#82ff6a"/><stop offset="1" stop-color="#fff" stop-opacity=".1"/></radialGradient><path d="M24.4-13.5c5 1.4 9.5 4.1 13.1 7.7v43.5c-3.6 3.6-8 6.3-13 7.7V28.8c0-2.7-2.1-4.9-4.8-5h-7.2c-2.7 0-4.9 2.1-5 4.8v17c-5-1.4-9.5-4.1-13-7.7V-5.8c3.6-3.6 8.1-6.3 13.1-7.7 0 .2-.1.5-.1.7V3.7c0 2.7 2.1 4.9 4.8 5h7.2c2.7 0 4.9-2.1 5-4.8v-16.4c0-.3 0-.7-.1-1zm19 15.6c2.8 4.7 4.1 9.4 4.1 14.2s-1.4 9.5-4.1 14.2c-.3.5-.9.6-1.4.4s-.6-.9-.4-1.4c2.6-4.4 3.9-8.8 3.9-13.2s-1.3-8.8-3.9-13.2c-.2-.4-.1-1.1.4-1.3s1.1-.2 1.4.3zm-54.8 0c.3-.5.9-.6 1.4-.4.5.3.6 1 .4 1.4-2.6 4.4-3.9 8.8-3.9 13.2s1.3 8.8 3.9 13.2c.3.5.1 1.1-.4 1.4-.5.3-1.1.1-1.4-.4-2.8-4.7-4.1-9.4-4.1-14.2s1.4-9.5 4.1-14.2z" fill-rule="evenodd" clip-rule="evenodd" fill="url(#b)"/></g><g transform="translate(16 16)"><radialGradient id="c" cx="-1602.501" cy="939.235" r="1.222" gradientTransform="matrix(-55.4715 20.0982 19.7429 54.4858 -107401.484 -18966.705)" gradientUnits="userSpaceOnUse"><stop offset="0" stop-color="#45ffba" stop-opacity=".469"/><stop offset="1" stop-color="#45abff" stop-opacity=".1"/></radialGradient><path d="M24.4-13.5c5 1.4 9.5 4.1 13.1 7.7v43.5c-3.6 3.6-8 6.3-13 7.7V28.8c0-2.7-2.1-4.9-4.8-5h-7.2c-2.7 0-4.9 2.1-5 4.8v17c-5-1.4-9.5-4.1-13-7.7V-5.8c3.6-3.6 8.1-6.3 13.1-7.7 0 .2-.1.5-.1.7V3.7c0 2.7 2.1 4.9 4.8 5h7.2c2.7 0 4.9-2.1 5-4.8v-16.4c0-.3 0-.7-.1-1zm19 15.6c2.8 4.7 4.1 9.4 4.1 14.2s-1.4 9.5-4.1 14.2c-.3.5-.9.6-1.4.4s-.6-.9-.4-1.4c2.6-4.4 3.9-8.8 3.9-13.2s-1.3-8.8-3.9-13.2c-.2-.4-.1-1.1.4-1.3s1.1-.2 1.4.3zm-54.8 0c.3-.5.9-.6 1.4-.4.5.3.6 1 .4 1.4-2.6 4.4-3.9 8.8-3.9 13.2s1.3 8.8 3.9 13.2c.3.5.1 1.1-.4 1.4-.5.3-1.1.1-1.4-.4-2.8-4.7-4.1-9.4-4.1-14.2s1.4-9.5 4.1-14.2z" fill-rule="evenodd" clip-rule="evenodd" fill="url(#c)"/></g><g transform="translate(16 16)"><radialGradient id="d" cx="-1554.01" cy="922.156" r=".772" gradientTransform="matrix(44.5555 38.6743 38.6757 -44.5541 33567.746 101211.344)" gradientUnits="userSpaceOnUse"><stop offset="0" stop-color="#00ff74"/><stop offset="1" stop-color="#00ff03" stop-opacity=".5"/></radialGradient><path d="M24.4-13.5c5 1.4 9.5 4.1 13.1 7.7v43.5c-3.6 3.6-8 6.3-13 7.7V28.8c0-2.7-2.1-4.9-4.8-5h-7.2c-2.7 0-4.9 2.1-5 4.8v17c-5-1.4-9.5-4.1-13-7.7V-5.8c3.6-3.6 8.1-6.3 13.1-7.7 0 .2-.1.5-.1.7V3.7c0 2.7 2.1 4.9 4.8 5h7.2c2.7 0 4.9-2.1 5-4.8v-16.4c0-.3 0-.7-.1-1zm19 15.6c2.8 4.7 4.1 9.4 4.1 14.2s-1.4 9.5-4.1 14.2c-.3.5-.9.6-1.4.4s-.6-.9-.4-1.4c2.6-4.4 3.9-8.8 3.9-13.2s-1.3-8.8-3.9-13.2c-.2-.4-.1-1.1.4-1.3s1.1-.2 1.4.3zm-54.8 0c.3-.5.9-.6 1.4-.4.5.3.6 1 .4 1.4-2.6 4.4-3.9 8.8-3.9 13.2s1.3 8.8 3.9 13.2c.3.5.1 1.1-.4 1.4-.5.3-1.1.1-1.4-.4-2.8-4.7-4.1-9.4-4.1-14.2s1.4-9.5 4.1-14.2z" fill-rule="evenodd" clip-rule="evenodd" fill="url(#d)" fill-opacity=".2"/></g></svg>